PathFileType	4	(X/Y/Z)	Walk8.trc
DataRate	CameraRate	NumFrames	NumMarkers	Units	OrigDataRate	OrigDataStartFrame	OrigNumFrames
200.000000	200.000000	7	55	mm	200.000000	592	935
Frame#	Times		LToe		LWRR		C7		RTH2		LACR1		RBHD		LElbow		LUA1		RMT1		LCAR		RCAR		RToe		LWRU		RTB2		LMMAL		RTB3		LTH3		RFA1		RTB4		RMT5		LMT5		RTB1		RMFC		RElbow		LTH4		RElbowM		RMMAL		RLFC		RCAL		LTB2		LPSI		LLFC		RPSI		RTH3		LTH2		T10		LASI		LCAL		LBHD		RBack		RASI		RFHD		LFHD		RACR1		LMT1		RLMAL		LLMAL		RUA1		RWRR		LTB1		LMFC		LTH1		LTB3		LTB4		RTH4
			X1	Y1	Z1	X2	Y2	Z2	X3	Y3	Z3	X4	Y4	Z4	X5	Y5	Z5	X6	Y6	Z6	X7	Y7	Z7	X8	Y8	Z8	X9	Y9	Z9	X10	Y10	Z10	X11	Y11	Z11	X12	Y12	Z12	X13	Y13	Z13	X14	Y14	Z14	X15	Y15	Z15	X16	Y16	Z16	X17	Y17	Z17	X18	Y18	Z18	X19	Y19	Z19	X20	Y20	Z20	X21	Y21	Z21	X22	Y22	Z22	X23	Y23	Z23	X24	Y24	Z24	X25	Y25	Z25	X26	Y26	Z26	X27	Y27	Z27	X28	Y28	Z28	X29	Y29	Z29	X30	Y30	Z30	X31	Y31	Z31	X32	Y32	Z32	X33	Y33	Z33	X34	Y34	Z34	X35	Y35	Z35	X36	Y36	Z36	X37	Y37	Z37	X38	Y38	Z38	X39	Y39	Z39	X40	Y40	Z40	X41	Y41	Z41	X42	Y42	Z42	X43	Y43	Z43	X44	Y44	Z44	X45	Y45	Z45	X46	Y46	Z46	X47	Y47	Z47	X48	Y48	Z48	X49	Y49	Z49	X50	Y50	Z50	X51	Y51	Z51	X52	Y52	Z52	X53	Y53	Z53	X54	Y54	Z54	X55	Y55	Z55

592	2.96	-176.98	119.47	-84.223	-736.85	806.15	-287.48	-666.63	1465.9	-18.347	-607.67	639.48	105.15	-572.66	1399.2	-186.34	-637.8	1594.2	-85.129	-716.83	1088.7	-296.55	-643.38	1209.1	-261.96	-727.54	21.667	15.318	-742.27	949.3	-299.06	-498.01	806.68	273.2	-675.62	21.213	56.387	-673.97	770.53	-269.71	-749.03	264.9	86.146	-344.06	92.197	-40.671	-777.2	185.52	7.4482	-510.86	572.95	-161.42	-607.05	927.91	283.92	-735.14	263.14	12.99	-777.25	17.276	92.735	-239.66	67.672	-134.77	-689.68	346.19	25.057	-707.61	474.44	-18.815	-661.61	1081	284.54	-535.56	662.89	-181.23	-699.3	1079.2	207.02	-844.1	75.391	-27.435	-691.38	499.68	108.29	-932.67	46.362	-15.705	-407.39	320.16	-140.33	-755.44	1028.2	-65.033	-505.05	514.03	-149.1	-765.77	1034.2	3.1379	-684.93	547.97	115.07	-485.14	683.03	-131.87	-741.54	1210.1	-16.753	-555.3	1012.4	-162.14	-411.03	24.89	-67.8	-636.67	1591.5	51.668	-686.45	1358.9	138	-593.93	982.33	145.12	-462.12	1635.3	-55.841	-461.81	1635.2	18.909	-556.22	1414.8	139.15	-210.28	83.479	-60.977	-878.77	77.457	47.898	-363.35	71.947	-120.47	-590.95	1238.9	232.71	-503.2	852.78	223.95	-416.44	413.85	-70.078	-507.7	487.27	-19.561	-562.54	751.46	-195.38	-370.98	234.15	-71.012	-394.52	323.91	-69.819	-674.66	638.76	136.98
593	2.965	-175.21	116.19	-83.922	-731.69	805.48	-288.08	-661.54	1465.4	-19.126	-603.69	638.69	104.71	-567.46	1398.5	-187.04	-632.67	1593.7	-85.926	-711.53	1088	-297.21	-638.13	1208.5	-262.62	-727.46	21.822	15.302	-737.02	948.62	-299.73	-493.8	806.03	272.86	-675.62	21.207	56.37	-668.88	769.83	-270.17	-747.27	264.8	85.971	-342.34	90.404	-40.057	-776.08	185.6	7.334	-504.44	573.25	-161.04	-602.61	927.47	283.33	-733.44	262.93	12.795	-777.34	17.209	92.629	-238.56	65.181	-134.63	-687.41	345.88	24.529	-704.28	474	-19.055	-656.9	1080.7	283.75	-529.2	663.08	-181.27	-694.46	1078.9	206.21	-843.83	75.881	-27.409	-687.98	499.19	107.97	-932.5	47.46	-15.705	-403.27	319.05	-139.61	-750.22	1027.7	-65.523	-499.26	513.68	-148.73	-760.63	1033.7	2.6438	-681.3	547.51	114.79	-479.05	683.46	-131.68	-736.41	1209.5	-17.366	-550.15	1011.7	-162.63	-410.19	24.478	-67.374	-631.62	1591	50.867	-681.4	1358.5	137.28	-588.82	981.76	144.61	-457.03	1634.9	-56.527	-456.77	1634.8	18.232	-551.17	1414.3	138.48	-208.58	80.399	-60.963	-878.38	78.232	47.903	-361.91	70.717	-119.95	-586.06	1238.5	232	-498.78	852.13	223.6	-411.81	412.74	-69.347	-501.83	487.28	-19.035	-556.29	751.57	-195.74	-367.95	232.66	-70.265	-390.66	322.63	-69.086	-670.66	638.27	136.61
594	2.97	-173.51	112.77	-83.456	-726.42	804.8	-288.7	-656.43	1464.9	-19.919	-599.62	637.94	104.24	-562.26	1397.9	-187.75	-627.53	1593.2	-86.741	-706.17	1087.3	-297.87	-632.84	1207.8	-263.29	-727.36	21.998	15.268	-731.68	947.93	-300.41	-489.65	805.39	272.51	-675.62	21.202	56.354	-663.67	769.13	-270.65	-745.46	264.74	85.788	-340.72	88.624	-39.44	-774.91	185.75	7.2097	-498.19	573.48	-160.6	-598.2	927.04	282.7	-731.68	262.75	12.594	-777.45	17.144	92.493	-237.53	62.625	-134.4	-685.09	345.68	23.927	-700.87	473.57	-19.308	-652.2	1080.3	282.93	-522.93	663.24	-181.19	-689.64	1078.6	205.38	-843.52	76.442	-27.384	-684.5	498.72	107.63	-932.3	48.669	-15.724	-399.15	318	-138.87	-744.99	1027.2	-66	-493.57	513.34	-148.37	-755.47	1033.2	2.1585	-677.58	547.05	114.49	-472.89	683.79	-131.52	-731.27	1209.1	-17.984	-544.99	1011.1	-163.14	-409.49	24.221	-67.016	-626.57	1590.5	50.05	-676.34	1358.1	136.54	-583.65	981.19	144.06	-451.94	1634.4	-57.235	-451.71	1634.4	17.535	-546.1	1413.9	137.8	-206.99	77.232	-60.85	-877.97	79.089	47.898	-360.51	69.558	-119.44	-581.18	1238.1	231.27	-494.41	851.49	223.24	-407.26	411.65	-68.566	-496.13	487.28	-18.565	-550.03	751.68	-195.97	-365.01	231.21	-69.489	-386.87	321.37	-68.314	-666.58	637.79	136.22
595	2.975	-171.84	109.29	-82.832	-721.05	804.11	-289.35	-651.3	1464.4	-20.721	-595.48	637.21	103.74	-557.05	1397.4	-188.48	-622.37	1592.7	-87.572	-700.73	1086.6	-298.54	-627.5	1207.2	-263.97	-727.26	22.188	15.216	-726.25	947.24	-301.1	-485.56	804.75	272.14	-675.62	21.196	56.339	-658.35	768.43	-271.17	-743.58	264.74	85.599	-339.14	86.892	-38.823	-773.69	185.95	7.0784	-492.13	573.66	-160.09	-593.83	926.63	282.06	-729.85	262.63	12.388	-777.55	17.083	92.329	-236.5	60.043	-134.09	-682.7	345.56	23.279	-697.38	473.17	-19.571	-647.53	1080	282.09	-516.79	663.36	-181	-684.82	1078.3	204.52	-843.17	77.085	-27.356	-680.9	498.26	107.27	-932.06	50.009	-15.759	-395.01	317.02	-138.1	-739.75	1026.7	-66.466	-487.97	513.03	-148.04	-750.28	1032.8	1.681	-673.76	546.62	114.16	-466.71	684.03	-131.39	-726.12	1208.7	-18.607	-539.83	1010.5	-163.68	-408.85	24.132	-66.715	-621.51	1590.1	49.216	-671.26	1357.8	135.8	-578.43	980.63	143.49	-446.84	1634.1	-57.962	-446.65	1634	16.816	-541.02	1413.5	137.11	-205.46	74.033	-60.638	-877.54	80.04	47.887	-359.09	68.489	-118.95	-576.29	1237.8	230.53	-490.09	850.85	222.86	-402.8	410.61	-67.754	-490.62	487.25	-18.169	-543.79	751.78	-196.08	-362.13	229.81	-68.697	-383.14	320.16	-67.52	-662.41	637.34	135.81
596	2.98	-170.17	105.78	-82.061	-715.57	803.42	-290.01	-646.16	1464	-21.533	-591.24	636.53	103.23	-551.84	1396.9	-189.22	-617.21	1592.3	-88.416	-695.24	1085.9	-299.2	-622.12	1206.5	-264.64	-727.15	22.383	15.152	-720.74	946.53	-301.8	-481.52	804.12	271.76	-675.63	21.187	56.325	-652.91	767.72	-271.71	-741.62	264.79	85.409	-337.59	85.234	-38.217	-772.41	186.23	6.9445	-486.29	573.76	-159.55	-589.5	926.25	281.39	-727.94	262.56	12.182	-777.66	17.025	92.137	-235.45	57.472	-133.71	-680.22	345.51	22.613	-693.79	472.78	-19.841	-642.86	1079.8	281.23	-510.8	663.45	-180.72	-680.01	1078	203.64	-842.76	77.827	-27.321	-677.18	497.82	106.89	-931.78	51.499	-15.805	-390.85	316.12	-137.34	-734.49	1026.3	-66.923	-482.49	512.76	-147.73	-745.08	1032.3	1.2102	-669.81	546.19	113.81	-460.54	684.16	-131.3	-720.96	1208.3	-19.235	-534.66	1009.9	-164.22	-408.23	24.211	-66.462	-616.43	1589.7	48.368	-666.18	1357.5	135.04	-573.16	980.09	142.89	-441.74	1633.7	-58.708	-441.57	1633.7	16.078	-535.92	1413.2	136.4	-203.96	70.847	-60.331	-877.06	81.097	47.878	-357.63	67.523	-118.48	-571.39	1237.4	229.76	-485.82	850.22	222.47	-398.41	409.64	-66.932	-485.34	487.19	-17.857	-537.61	751.88	-196.07	-359.28	228.48	-67.904	-379.47	319.03	-66.721	-658.15	636.91	135.38
597	2.985	-168.51	102.29	-81.157	-709.98	802.72	-290.7	-641	1463.6	-22.352	-586.89	635.89	102.7	-546.62	1396.4	-189.97	-612.04	1591.9	-89.272	-689.67	1085.2	-299.86	-616.68	1205.9	-265.3	-727.04	22.574	15.079	-715.13	945.82	-302.5	-477.54	803.51	271.37	-675.66	21.175	56.31	-647.36	767.02	-272.28	-739.56	264.91	85.225	-336.04	83.671	-37.63	-771.04	186.59	6.8132	-480.67	573.81	-158.99	-585.21	925.89	280.7	-725.93	262.56	11.977	-777.78	16.973	91.919	-234.36	54.94	-133.25	-677.63	345.5	21.957	-690.07	472.42	-20.112	-638.21	1079.5	280.34	-504.98	663.49	-180.36	-675.21	1077.8	202.75	-842.29	78.681	-27.276	-673.31	497.41	106.5	-931.45	53.159	-15.856	-386.66	315.31	-136.6	-729.24	1026	-67.375	-477.11	512.52	-147.47	-739.86	1031.9	0.74548	-665.73	545.78	113.45	-454.43	684.2	-131.24	-715.79	1208	-19.867	-529.47	1009.5	-164.77	-407.6	24.445	-66.253	-611.35	1589.4	47.507	-661.08	1357.2	134.27	-567.84	979.59	142.26	-436.62	1633.4	-59.471	-436.48	1633.4	15.32	-530.81	1412.9	135.69	-202.49	67.713	-59.933	-876.54	82.274	47.876	-356.1	66.663	-118.03	-566.49	1237.1	228.97	-481.6	849.61	222.07	-394.07	408.73	-66.118	-480.31	487.11	-17.636	-531.52	751.95	-195.96	-356.46	227.25	-67.125	-375.83	317.97	-65.933	-653.78	636.5	134.94
598	2.99	-166.84	98.845	-80.138	-704.28	802.02	-291.41	-635.83	1463.3	-23.177	-582.41	635.29	102.15	-541.39	1395.9	-190.73	-606.86	1591.6	-90.138	-684.03	1084.4	-300.52	-611.21	1205.3	-265.96	-726.94	22.751	15.002	-709.43	945.12	-303.21	-473.62	802.92	270.97	-675.7	21.157	56.296	-641.7	766.34	-272.88	-737.39	265.11	85.055	-334.49	82.214	-37.074	-769.58	187.04	6.6917	-475.26	573.79	-158.43	-580.96	925.56	279.99	-723.81	262.63	11.781	-777.9	16.931	91.677	-233.22	52.467	-132.73	-674.89	345.52	21.336	-686.21	472.08	-20.38	-633.58	1079.4	279.42	-499.33	663.5	-179.95	-670.42	1077.7	201.83	-841.74	79.662	-27.212	-669.26	497.03	106.1	-931.05	55.011	-15.907	-382.45	314.59	-135.89	-723.98	1025.7	-67.825	-471.85	512.34	-147.24	-734.63	1031.5	0.28608	-661.48	545.39	113.07	-448.39	684.15	-131.2	-710.62	1207.7	-20.501	-524.26	1009	-165.32	-406.95	24.813	-66.087	-606.25	1589.1	46.635	-655.98	1357	133.49	-562.49	979.12	141.6	-431.5	1633.2	-60.251	-431.38	1633.2	14.544	-525.68	1412.6	134.97	-201.04	64.655	-59.457	-875.95	83.584	47.889	-354.51	65.902	-117.63	-561.58	1236.9	228.17	-477.43	849.02	221.65	-389.78	407.91	-65.33	-475.52	487	-17.506	-525.54	752.01	-195.76	-353.67	226.12	-66.376	-372.23	317.01	-65.172	-649.27	636.11	134.48
